<svg width="294" height="49" viewBox="0 0 294 49" fill="#e2e8f0" xmlns="http://www.w3.org/2000/svg">
<path d="M15.8356 34.0343V39.9522H31.6164V26.1439H15.8356V34.0343ZM11.8904 30.0891V26.1439H7.9452V22.1987H11.8904V18.2535H7.9452V30.0891H11.8904ZM11.8904 34.0343H7.9452V36.0069C7.9452 37.0533 8.36086 38.0568 9.10073 38.7966C9.8406 39.5365 10.8441 39.9522 11.8904 39.9522V34.0343ZM39.5068 30.0891V18.2535H35.5616V22.1987H39.5068V26.1439H35.5616V30.0891H39.5068ZM39.5068 34.0343H35.5616V39.9522C36.608 39.9522 37.6114 39.5365 38.3513 38.7966C39.0912 38.0568 39.5068 37.0533 39.5068 36.0069V34.0343ZM31.6164 18.2535V8.39052H15.8356V22.1987H31.6164V18.2535ZM39.5068 14.3083V12.3357C39.5068 11.2894 39.0912 10.2859 38.3513 9.54604C37.6114 8.80617 36.608 8.39052 35.5616 8.39052V14.3083H39.5068ZM11.8904 14.3083V8.39052C10.8441 8.39052 9.8406 8.80617 9.10073 9.54604C8.36086 10.2859 7.9452 11.2894 7.9452 12.3357V14.3083H11.8904ZM11.8904 4.44531H35.5616C37.6543 4.44531 39.6613 5.27662 41.141 6.75636C42.6207 8.2361 43.452 10.2431 43.452 12.3357V36.0069C43.452 38.0996 42.6207 40.1066 41.141 41.5863C39.6613 43.066 37.6543 43.8974 35.5616 43.8974H11.8904C9.79774 43.8974 7.79079 43.066 6.31105 41.5863C4.83131 40.1066 4 38.0996 4 36.0069V12.3357C4 10.2431 4.83131 8.2361 6.31105 6.75636C7.79079 5.27662 9.79774 4.44531 11.8904 4.44531Z"/>
<path d="M68.72 38.52C67.8667 38.84 66.96 39 66 39C65.04 39 64.2 38.6933 63.48 38.08C62.7867 37.4667 62.44 36.6267 62.44 35.56C62.44 34.4933 62.5733 32.4533 62.84 29.44C63.1067 26.4 63.24 23.9733 63.24 22.16C63.24 17.4933 62.96 13.8 62.4 11.08C63.2533 10.76 64.16 10.6 65.12 10.6C66.08 10.6 66.9067 10.9067 67.6 11.52C68.32 12.1333 68.68 12.8933 68.68 13.8C68.68 14.68 68.64 15.5333 68.56 16.36C68.5067 17.1867 68.4267 18.1333 68.32 19.2C68.2133 20.2667 68.1333 21.2 68.08 22C69.1467 22.1067 70.9867 22.16 73.6 22.16C76.2133 22.16 78.2267 22.0533 79.64 21.84C79.64 17.6 79.36 13.9333 78.8 10.84C79.6533 10.52 80.56 10.36 81.52 10.36C82.48 10.36 83.3067 10.6667 84 11.28C84.72 11.8933 85.08 12.7467 85.08 13.84C85.08 14.9067 84.9467 16.8133 84.68 19.56C84.4133 22.3067 84.28 24.5067 84.28 26.16C84.28 31.3867 84.56 35.5867 85.12 38.76C84.2667 39.08 83.36 39.24 82.4 39.24C81.44 39.24 80.6 38.9333 79.88 38.32C79.1867 37.7067 78.84 36.8933 78.84 35.88C78.84 34.8667 78.9467 33.2133 79.16 30.92C79.3733 28.6267 79.5067 27.0533 79.56 26.2C76.9467 26.0133 73.0533 25.92 67.88 25.92V26.96C67.88 31.68 68.16 35.5333 68.72 38.52ZM94.0191 29.92C94.0191 31.84 94.3257 33.36 94.9391 34.48C95.5524 35.5733 96.5791 36.12 98.0191 36.12C99.4591 36.12 100.579 35.64 101.379 34.68C102.206 33.6933 102.619 32.5067 102.619 31.12C103.526 31.12 104.312 31.3467 104.979 31.8C105.646 32.2533 105.979 32.88 105.979 33.68C105.979 35.3333 105.099 36.72 103.339 37.84C101.579 38.9333 99.7257 39.48 97.7791 39.48C94.7391 39.48 92.5391 38.6667 91.1791 37.04C89.8191 35.3867 89.1391 32.9467 89.1391 29.72C89.1391 26.4933 90.0457 23.7867 91.8591 21.6C93.6991 19.3867 96.1391 18.28 99.1791 18.28C101.259 18.28 102.926 18.76 104.179 19.72C105.459 20.6533 106.099 22.12 106.099 24.12C106.099 26.0933 105.192 27.5867 103.379 28.6C101.592 29.5867 99.4057 30.08 96.8191 30.08C95.9124 30.08 94.9791 30.0267 94.0191 29.92ZM94.0591 26.76C94.8591 26.92 95.6991 27 96.5791 27C98.4991 27 100.112 26.64 101.419 25.92C101.579 25.28 101.659 24.7733 101.659 24.4C101.659 23.4667 101.326 22.76 100.659 22.28C99.9924 21.8 99.0724 21.56 97.8991 21.56C96.7524 21.56 95.7124 21.9333 94.7791 22.68C94.2991 24.0667 94.0591 25.4267 94.0591 26.76ZM111.112 9.48C111.966 9.16 112.846 9 113.752 9C114.659 9 115.406 9.30666 115.992 9.92C116.606 10.5067 116.912 11.32 116.912 12.36C116.912 13.3733 116.766 15.4267 116.472 18.52C116.206 21.5867 116.072 24 116.072 25.76C116.072 30.1067 116.379 34.36 116.992 38.52C116.139 38.84 115.232 39 114.272 39C112.219 39 111.192 38 111.192 36C111.192 35.04 111.339 33.16 111.632 30.36C111.926 27.5333 112.072 25.2667 112.072 23.56C112.072 17.88 111.752 13.1867 111.112 9.48ZM122.654 9.48C123.508 9.16 124.388 9 125.294 9C126.201 9 126.948 9.30666 127.534 9.92C128.148 10.5067 128.454 11.32 128.454 12.36C128.454 13.3733 128.308 15.4267 128.014 18.52C127.748 21.5867 127.614 24 127.614 25.76C127.614 30.1067 127.921 34.36 128.534 38.52C127.681 38.84 126.774 39 125.814 39C123.761 39 122.734 38 122.734 36C122.734 35.04 122.881 33.16 123.174 30.36C123.468 27.5333 123.614 25.2667 123.614 23.56C123.614 17.88 123.294 13.1867 122.654 9.48ZM141.037 39.48C138.103 39.48 135.943 38.6267 134.557 36.92C133.17 35.1867 132.477 32.7867 132.477 29.72C132.477 26.6267 133.397 23.9467 135.237 21.68C137.077 19.4133 139.437 18.28 142.317 18.28C148.237 18.28 151.197 21.6133 151.197 28.28C151.197 31.4 150.237 34.0533 148.317 36.24C146.397 38.4 143.97 39.48 141.037 39.48ZM138.157 22.68C137.677 24.2267 137.437 25.7733 137.437 27.32C137.437 28.8667 137.49 30.0667 137.597 30.92C137.703 31.7733 137.903 32.6267 138.197 33.48C138.81 35.2133 140.01 36.08 141.797 36.08C143.61 36.08 144.797 35.6 145.357 34.64C145.943 33.68 146.237 32.2 146.237 30.2C146.237 24.52 144.89 21.68 142.197 21.68C140.65 21.68 139.303 22.0133 138.157 22.68ZM196.312 12.84L196.112 19.44C196.112 23.0667 196.218 26.32 196.432 29.2C196.645 32.0533 197.125 35.16 197.872 38.52C197.285 39 196.352 39.24 195.072 39.24C192.592 39.24 191.352 38.16 191.352 36C191.352 34.2133 191.432 31.48 191.592 27.8C191.778 24.12 191.872 21.24 191.872 19.16C190.432 21.24 188.912 23.8133 187.312 26.88C185.738 29.92 184.952 31.7867 184.952 32.48C184.952 33.1733 185.018 33.7067 185.152 34.08C184.565 34.4533 183.778 34.64 182.792 34.64C181.832 34.64 181.018 34.3733 180.352 33.84C179.712 33.3067 179.165 32.5733 178.712 31.64C178.285 30.7067 177.512 28.88 176.392 26.16C175.298 23.4133 174.298 21.0533 173.392 19.08C172.698 23.3733 172.352 27.1733 172.352 30.48C172.352 33.7867 172.458 36.4667 172.672 38.52C171.818 38.84 170.965 39 170.112 39C168.405 39 167.552 38.1467 167.552 36.44C167.552 35.1333 167.845 32.5333 168.432 28.64C169.045 24.72 169.352 21.4133 169.352 18.72C169.352 16.0267 169.205 13.5067 168.912 11.16C170.352 10.7867 171.472 10.6 172.272 10.6C173.738 10.6 174.725 11.12 175.232 12.16C176.032 13.84 177.205 16.52 178.752 20.2C180.325 23.8533 181.605 26.6667 182.592 28.64C182.858 28.08 183.472 26.88 184.432 25.04C185.418 23.1733 186.232 21.5867 186.872 20.28C187.538 18.9467 188.205 17.3733 188.872 15.56C189.565 13.72 190.005 12.12 190.192 10.76C191.152 10.4933 192.085 10.36 192.992 10.36C193.925 10.36 194.712 10.56 195.352 10.96C195.992 11.36 196.312 11.9867 196.312 12.84ZM209.804 39.48C206.87 39.48 204.71 38.6267 203.324 36.92C201.937 35.1867 201.244 32.7867 201.244 29.72C201.244 26.6267 202.164 23.9467 204.004 21.68C205.844 19.4133 208.204 18.28 211.084 18.28C217.004 18.28 219.964 21.6133 219.964 28.28C219.964 31.4 219.004 34.0533 217.084 36.24C215.164 38.4 212.737 39.48 209.804 39.48ZM206.924 22.68C206.444 24.2267 206.204 25.7733 206.204 27.32C206.204 28.8667 206.257 30.0667 206.364 30.92C206.47 31.7733 206.67 32.6267 206.964 33.48C207.577 35.2133 208.777 36.08 210.564 36.08C212.377 36.08 213.564 35.6 214.124 34.64C214.71 33.68 215.004 32.2 215.004 30.2C215.004 24.52 213.657 21.68 210.964 21.68C209.417 21.68 208.07 22.0133 206.924 22.68ZM239.55 32.68C238.616 34.4933 237.443 36.04 236.03 37.32C234.616 38.6 233.203 39.24 231.79 39.24C230.376 39.24 229.283 38.76 228.51 37.8C227.763 36.8133 227.23 35.56 226.91 34.04C226.59 32.4933 226.296 30.9067 226.03 29.28C225.79 27.6533 225.363 26.0667 224.75 24.52C224.136 22.9733 223.296 21.8133 222.23 21.04C222.576 20.4 223.096 19.8667 223.79 19.44C224.483 18.9867 225.23 18.76 226.03 18.76C227.283 18.76 228.296 19.5733 229.07 21.2C229.843 22.8 230.336 24.5733 230.55 26.52C230.79 28.4667 231.043 30.36 231.31 32.2C231.603 34.0133 231.936 35.0533 232.31 35.32C233.216 35.2667 234.003 34.6933 234.67 33.6C235.363 32.48 235.87 31.1333 236.19 29.56C236.776 26.68 237.07 24.4267 237.07 22.8C237.07 21.1733 236.99 19.92 236.83 19.04C237.763 18.8533 238.563 18.76 239.23 18.76C241.523 18.76 242.67 19.8533 242.67 22.04C242.67 23.4267 242.376 25.0933 241.79 27.04C241.23 28.96 240.483 30.84 239.55 32.68ZM246.12 19.12C246.973 18.88 247.826 18.76 248.68 18.76C249.56 18.76 250.306 19.0267 250.92 19.56C251.533 20.0933 251.84 20.7867 251.84 21.64C251.84 22.4667 251.693 23.92 251.4 26C251.133 28.0533 251 29.6533 251 30.8C251 33.7867 251.28 36.36 251.84 38.52C251.013 38.84 250.12 39 249.16 39C248.2 39 247.44 38.7867 246.88 38.36C246.32 37.9067 246.04 37.2667 246.04 36.44C246.04 35.5867 246.2 34.2 246.52 32.28C246.84 30.36 247 28.7733 247 27.52C247 24.1867 246.706 21.3867 246.12 19.12ZM246.64 10.08C247.573 9.65333 248.493 9.44 249.4 9.44C250.306 9.44 250.973 9.68 251.4 10.16C251.853 10.6133 252.08 11.2933 252.08 12.2C252.08 13.1067 251.773 13.9067 251.16 14.6C250.573 15.2933 249.8 15.64 248.84 15.64C246.866 15.64 245.88 14.6133 245.88 12.56C245.88 11.6533 246.133 10.8267 246.64 10.08ZM260.555 29.92C260.555 31.84 260.862 33.36 261.475 34.48C262.088 35.5733 263.115 36.12 264.555 36.12C265.995 36.12 267.115 35.64 267.915 34.68C268.742 33.6933 269.155 32.5067 269.155 31.12C270.062 31.12 270.848 31.3467 271.515 31.8C272.182 32.2533 272.515 32.88 272.515 33.68C272.515 35.3333 271.635 36.72 269.875 37.84C268.115 38.9333 266.262 39.48 264.315 39.48C261.275 39.48 259.075 38.6667 257.715 37.04C256.355 35.3867 255.675 32.9467 255.675 29.72C255.675 26.4933 256.582 23.7867 258.395 21.6C260.235 19.3867 262.675 18.28 265.715 18.28C267.795 18.28 269.462 18.76 270.715 19.72C271.995 20.6533 272.635 22.12 272.635 24.12C272.635 26.0933 271.728 27.5867 269.915 28.6C268.128 29.5867 265.942 30.08 263.355 30.08C262.448 30.08 261.515 30.0267 260.555 29.92ZM260.595 26.76C261.395 26.92 262.235 27 263.115 27C265.035 27 266.648 26.64 267.955 25.92C268.115 25.28 268.195 24.7733 268.195 24.4C268.195 23.4667 267.862 22.76 267.195 22.28C266.528 21.8 265.608 21.56 264.435 21.56C263.288 21.56 262.248 21.9333 261.315 22.68C260.835 24.0667 260.595 25.4267 260.595 26.76ZM280.768 31.72C280.688 32.0933 280.648 32.4 280.648 32.64C280.648 33.7333 280.968 34.5733 281.608 35.16C282.275 35.7467 283.155 36.04 284.248 36.04C285.368 36.04 286.288 35.84 287.008 35.44C287.755 35.0133 288.128 34.3867 288.128 33.56C288.128 32.7333 287.728 32.08 286.928 31.6C286.155 31.0933 285.208 30.6933 284.088 30.4C282.995 30.1067 281.888 29.7867 280.768 29.44C279.648 29.0667 278.688 28.4933 277.888 27.72C277.115 26.9467 276.728 25.9733 276.728 24.8C276.728 22.96 277.701 21.4133 279.648 20.16C281.595 18.9067 283.635 18.28 285.768 18.28C288.115 18.28 289.901 18.76 291.128 19.72C291.848 20.28 292.208 21.0267 292.208 21.96C292.208 22.8667 291.848 23.6133 291.128 24.2C290.435 24.76 289.581 25.04 288.568 25.04C288.355 25.04 288.088 25.0133 287.768 24.96C287.848 24.6133 287.888 24.3067 287.888 24.04C287.888 23.2667 287.595 22.68 287.008 22.28C286.421 21.88 285.621 21.68 284.608 21.68C283.621 21.68 282.715 21.88 281.888 22.28C281.568 22.7067 281.408 23.2533 281.408 23.92C281.408 24.5867 281.795 25.1333 282.568 25.56C283.341 25.96 284.275 26.32 285.368 26.64C286.488 26.9333 287.608 27.28 288.728 27.68C289.848 28.0533 290.795 28.6533 291.568 29.48C292.341 30.28 292.728 31.2933 292.728 32.52C292.728 34.52 291.728 36.1867 289.728 37.52C287.755 38.8267 285.715 39.48 283.608 39.48C281.501 39.48 279.755 39.1067 278.368 38.36C277.008 37.5867 276.328 36.4267 276.328 34.88C276.328 33.92 276.675 33.1467 277.368 32.56C278.088 31.9467 278.955 31.64 279.968 31.64C280.181 31.64 280.448 31.6667 280.768 31.72Z"/>
</svg>
