<svg width="282" height="49" viewBox="0 0 282 49" fill="none" xmlns="http://www.w3.org/2000/svg">
<path d="M15.8356 34.0343V39.9522H31.6164V26.1439H15.8356V34.0343ZM11.8904 30.0891V26.1439H7.9452V22.1987H11.8904V18.2535H7.9452V30.0891H11.8904ZM11.8904 34.0343H7.9452V36.0069C7.9452 37.0533 8.36086 38.0568 9.10073 38.7966C9.8406 39.5365 10.8441 39.9522 11.8904 39.9522V34.0343ZM39.5068 30.0891V18.2535H35.5616V22.1987H39.5068V26.1439H35.5616V30.0891H39.5068ZM39.5068 34.0343H35.5616V39.9522C36.608 39.9522 37.6114 39.5365 38.3513 38.7966C39.0912 38.0568 39.5068 37.0533 39.5068 36.0069V34.0343ZM31.6164 18.2535V8.39052H15.8356V22.1987H31.6164V18.2535ZM39.5068 14.3083V12.3357C39.5068 11.2894 39.0912 10.2859 38.3513 9.54604C37.6114 8.80617 36.608 8.39052 35.5616 8.39052V14.3083H39.5068ZM11.8904 14.3083V8.39052C10.8441 8.39052 9.8406 8.80617 9.10073 9.54604C8.36086 10.2859 7.9452 11.2894 7.9452 12.3357V14.3083H11.8904ZM11.8904 4.44531H35.5616C37.6543 4.44531 39.6613 5.27662 41.141 6.75636C42.6207 8.2361 43.452 10.2431 43.452 12.3357V36.0069C43.452 38.0996 42.6207 40.1066 41.141 41.5863C39.6613 43.066 37.6543 43.8974 35.5616 43.8974H11.8904C9.79774 43.8974 7.79079 43.066 6.31105 41.5863C4.83131 40.1066 4 38.0996 4 36.0069V12.3357C4 10.2431 4.83131 8.2361 6.31105 6.75636C7.79079 5.27662 9.79774 4.44531 11.8904 4.44531Z" fill="#E2E8F0"/>
<path d="M68.72 38.52C67.8667 38.84 66.96 39 66 39C65.04 39 64.2 38.6933 63.48 38.08C62.7867 37.4667 62.44 36.6267 62.44 35.56C62.44 34.4933 62.5733 32.4533 62.84 29.44C63.1067 26.4 63.24 23.9733 63.24 22.16C63.24 17.4933 62.96 13.8 62.4 11.08C63.2533 10.76 64.16 10.6 65.12 10.6C66.08 10.6 66.9067 10.9067 67.6 11.52C68.32 12.1333 68.68 12.8933 68.68 13.8C68.68 14.68 68.64 15.5333 68.56 16.36C68.5067 17.1867 68.4267 18.1333 68.32 19.2C68.2133 20.2667 68.1333 21.2 68.08 22C69.1467 22.1067 70.9867 22.16 73.6 22.16C76.2133 22.16 78.2267 22.0533 79.64 21.84C79.64 17.6 79.36 13.9333 78.8 10.84C79.6533 10.52 80.56 10.36 81.52 10.36C82.48 10.36 83.3067 10.6667 84 11.28C84.72 11.8933 85.08 12.7467 85.08 13.84C85.08 14.9067 84.9467 16.8133 84.68 19.56C84.4133 22.3067 84.28 24.5067 84.28 26.16C84.28 31.3867 84.56 35.5867 85.12 38.76C84.2667 39.08 83.36 39.24 82.4 39.24C81.44 39.24 80.6 38.9333 79.88 38.32C79.1867 37.7067 78.84 36.8933 78.84 35.88C78.84 34.8667 78.9467 33.2133 79.16 30.92C79.3733 28.6267 79.5067 27.0533 79.56 26.2C76.9467 26.0133 73.0533 25.92 67.88 25.92V26.96C67.88 31.68 68.16 35.5333 68.72 38.52ZM94.0191 29.92C94.0191 31.84 94.3257 33.36 94.9391 34.48C95.5524 35.5733 96.5791 36.12 98.0191 36.12C99.4591 36.12 100.579 35.64 101.379 34.68C102.206 33.6933 102.619 32.5067 102.619 31.12C103.526 31.12 104.312 31.3467 104.979 31.8C105.646 32.2533 105.979 32.88 105.979 33.68C105.979 35.3333 105.099 36.72 103.339 37.84C101.579 38.9333 99.7257 39.48 97.7791 39.48C94.7391 39.48 92.5391 38.6667 91.1791 37.04C89.8191 35.3867 89.1391 32.9467 89.1391 29.72C89.1391 26.4933 90.0457 23.7867 91.8591 21.6C93.6991 19.3867 96.1391 18.28 99.1791 18.28C101.259 18.28 102.926 18.76 104.179 19.72C105.459 20.6533 106.099 22.12 106.099 24.12C106.099 26.0933 105.192 27.5867 103.379 28.6C101.592 29.5867 99.4057 30.08 96.8191 30.08C95.9124 30.08 94.9791 30.0267 94.0191 29.92ZM94.0591 26.76C94.8591 26.92 95.6991 27 96.5791 27C98.4991 27 100.112 26.64 101.419 25.92C101.579 25.28 101.659 24.7733 101.659 24.4C101.659 23.4667 101.326 22.76 100.659 22.28C99.9924 21.8 99.0724 21.56 97.8991 21.56C96.7524 21.56 95.7124 21.9333 94.7791 22.68C94.2991 24.0667 94.0591 25.4267 94.0591 26.76ZM111.112 9.48C111.966 9.16 112.846 9 113.752 9C114.659 9 115.406 9.30666 115.992 9.92C116.606 10.5067 116.912 11.32 116.912 12.36C116.912 13.3733 116.766 15.4267 116.472 18.52C116.206 21.5867 116.072 24 116.072 25.76C116.072 30.1067 116.379 34.36 116.992 38.52C116.139 38.84 115.232 39 114.272 39C112.219 39 111.192 38 111.192 36C111.192 35.04 111.339 33.16 111.632 30.36C111.926 27.5333 112.072 25.2667 112.072 23.56C112.072 17.88 111.752 13.1867 111.112 9.48ZM122.654 9.48C123.508 9.16 124.388 9 125.294 9C126.201 9 126.948 9.30666 127.534 9.92C128.148 10.5067 128.454 11.32 128.454 12.36C128.454 13.3733 128.308 15.4267 128.014 18.52C127.748 21.5867 127.614 24 127.614 25.76C127.614 30.1067 127.921 34.36 128.534 38.52C127.681 38.84 126.774 39 125.814 39C123.761 39 122.734 38 122.734 36C122.734 35.04 122.881 33.16 123.174 30.36C123.468 27.5333 123.614 25.2667 123.614 23.56C123.614 17.88 123.294 13.1867 122.654 9.48ZM141.037 39.48C138.103 39.48 135.943 38.6267 134.557 36.92C133.17 35.1867 132.477 32.7867 132.477 29.72C132.477 26.6267 133.397 23.9467 135.237 21.68C137.077 19.4133 139.437 18.28 142.317 18.28C148.237 18.28 151.197 21.6133 151.197 28.28C151.197 31.4 150.237 34.0533 148.317 36.24C146.397 38.4 143.97 39.48 141.037 39.48ZM138.157 22.68C137.677 24.2267 137.437 25.7733 137.437 27.32C137.437 28.8667 137.49 30.0667 137.597 30.92C137.703 31.7733 137.903 32.6267 138.197 33.48C138.81 35.2133 140.01 36.08 141.797 36.08C143.61 36.08 144.797 35.6 145.357 34.64C145.943 33.68 146.237 32.2 146.237 30.2C146.237 24.52 144.89 21.68 142.197 21.68C140.65 21.68 139.303 22.0133 138.157 22.68ZM184.223 12.84L184.023 19.44C184.023 23.0667 184.129 26.32 184.343 29.2C184.556 32.0533 185.036 35.16 185.783 38.52C185.196 39 184.263 39.24 182.983 39.24C180.503 39.24 179.263 38.16 179.263 36C179.263 34.2133 179.343 31.48 179.503 27.8C179.689 24.12 179.783 21.24 179.783 19.16C178.343 21.24 176.823 23.8133 175.223 26.88C173.649 29.92 172.863 31.7867 172.863 32.48C172.863 33.1733 172.929 33.7067 173.062 34.08C172.476 34.4533 171.689 34.64 170.703 34.64C169.743 34.64 168.929 34.3733 168.263 33.84C167.623 33.3067 167.076 32.5733 166.623 31.64C166.196 30.7067 165.423 28.88 164.303 26.16C163.209 23.4133 162.209 21.0533 161.303 19.08C160.609 23.3733 160.263 27.1733 160.263 30.48C160.263 33.7867 160.369 36.4667 160.583 38.52C159.729 38.84 158.876 39 158.023 39C156.316 39 155.463 38.1467 155.463 36.44C155.463 35.1333 155.756 32.5333 156.343 28.64C156.956 24.72 157.263 21.4133 157.263 18.72C157.263 16.0267 157.116 13.5067 156.823 11.16C158.263 10.7867 159.383 10.6 160.183 10.6C161.649 10.6 162.636 11.12 163.143 12.16C163.943 13.84 165.116 16.52 166.663 20.2C168.236 23.8533 169.516 26.6667 170.503 28.64C170.769 28.08 171.383 26.88 172.343 25.04C173.329 23.1733 174.143 21.5867 174.783 20.28C175.449 18.9467 176.116 17.3733 176.783 15.56C177.476 13.72 177.916 12.12 178.103 10.76C179.063 10.4933 179.996 10.36 180.903 10.36C181.836 10.36 182.623 10.56 183.263 10.96C183.903 11.36 184.223 11.9867 184.223 12.84ZM197.715 39.48C194.781 39.48 192.621 38.6267 191.235 36.92C189.848 35.1867 189.155 32.7867 189.155 29.72C189.155 26.6267 190.075 23.9467 191.915 21.68C193.755 19.4133 196.115 18.28 198.995 18.28C204.915 18.28 207.875 21.6133 207.875 28.28C207.875 31.4 206.915 34.0533 204.995 36.24C203.075 38.4 200.648 39.48 197.715 39.48ZM194.835 22.68C194.355 24.2267 194.115 25.7733 194.115 27.32C194.115 28.8667 194.168 30.0667 194.275 30.92C194.381 31.7733 194.581 32.6267 194.875 33.48C195.488 35.2133 196.688 36.08 198.475 36.08C200.288 36.08 201.475 35.6 202.035 34.64C202.621 33.68 202.915 32.2 202.915 30.2C202.915 24.52 201.568 21.68 198.875 21.68C197.328 21.68 195.981 22.0133 194.835 22.68ZM227.461 32.68C226.527 34.4933 225.354 36.04 223.941 37.32C222.527 38.6 221.114 39.24 219.701 39.24C218.287 39.24 217.194 38.76 216.421 37.8C215.674 36.8133 215.141 35.56 214.821 34.04C214.501 32.4933 214.207 30.9067 213.941 29.28C213.701 27.6533 213.274 26.0667 212.661 24.52C212.047 22.9733 211.207 21.8133 210.141 21.04C210.487 20.4 211.007 19.8667 211.701 19.44C212.394 18.9867 213.141 18.76 213.941 18.76C215.194 18.76 216.207 19.5733 216.981 21.2C217.754 22.8 218.247 24.5733 218.461 26.52C218.701 28.4667 218.954 30.36 219.221 32.2C219.514 34.0133 219.847 35.0533 220.221 35.32C221.127 35.2667 221.914 34.6933 222.581 33.6C223.274 32.48 223.781 31.1333 224.101 29.56C224.687 26.68 224.981 24.4267 224.981 22.8C224.981 21.1733 224.901 19.92 224.741 19.04C225.674 18.8533 226.474 18.76 227.141 18.76C229.434 18.76 230.581 19.8533 230.581 22.04C230.581 23.4267 230.287 25.0933 229.701 27.04C229.141 28.96 228.394 30.84 227.461 32.68ZM234.031 19.12C234.884 18.88 235.737 18.76 236.591 18.76C237.471 18.76 238.217 19.0267 238.831 19.56C239.444 20.0933 239.751 20.7867 239.751 21.64C239.751 22.4667 239.604 23.92 239.311 26C239.044 28.0533 238.911 29.6533 238.911 30.8C238.911 33.7867 239.191 36.36 239.751 38.52C238.924 38.84 238.031 39 237.071 39C236.111 39 235.351 38.7867 234.791 38.36C234.231 37.9067 233.951 37.2667 233.951 36.44C233.951 35.5867 234.111 34.2 234.431 32.28C234.751 30.36 234.911 28.7733 234.911 27.52C234.911 24.1867 234.617 21.3867 234.031 19.12ZM234.551 10.08C235.484 9.65333 236.404 9.44 237.311 9.44C238.217 9.44 238.884 9.68 239.311 10.16C239.764 10.6133 239.991 11.2933 239.991 12.2C239.991 13.1067 239.684 13.9067 239.071 14.6C238.484 15.2933 237.711 15.64 236.751 15.64C234.777 15.64 233.791 14.6133 233.791 12.56C233.791 11.6533 234.044 10.8267 234.551 10.08ZM248.466 29.92C248.466 31.84 248.773 33.36 249.386 34.48C249.999 35.5733 251.026 36.12 252.466 36.12C253.906 36.12 255.026 35.64 255.826 34.68C256.653 33.6933 257.066 32.5067 257.066 31.12C257.973 31.12 258.759 31.3467 259.426 31.8C260.093 32.2533 260.426 32.88 260.426 33.68C260.426 35.3333 259.546 36.72 257.786 37.84C256.026 38.9333 254.173 39.48 252.226 39.48C249.186 39.48 246.986 38.6667 245.626 37.04C244.266 35.3867 243.586 32.9467 243.586 29.72C243.586 26.4933 244.493 23.7867 246.306 21.6C248.146 19.3867 250.586 18.28 253.626 18.28C255.706 18.28 257.373 18.76 258.626 19.72C259.906 20.6533 260.546 22.12 260.546 24.12C260.546 26.0933 259.639 27.5867 257.826 28.6C256.039 29.5867 253.853 30.08 251.266 30.08C250.359 30.08 249.426 30.0267 248.466 29.92ZM248.506 26.76C249.306 26.92 250.146 27 251.026 27C252.946 27 254.559 26.64 255.866 25.92C256.026 25.28 256.106 24.7733 256.106 24.4C256.106 23.4667 255.773 22.76 255.106 22.28C254.439 21.8 253.519 21.56 252.346 21.56C251.199 21.56 250.159 21.9333 249.226 22.68C248.746 24.0667 248.506 25.4267 248.506 26.76ZM268.679 31.72C268.599 32.0933 268.559 32.4 268.559 32.64C268.559 33.7333 268.879 34.5733 269.519 35.16C270.186 35.7467 271.066 36.04 272.159 36.04C273.279 36.04 274.199 35.84 274.919 35.44C275.666 35.0133 276.039 34.3867 276.039 33.56C276.039 32.7333 275.639 32.08 274.839 31.6C274.066 31.0933 273.119 30.6933 271.999 30.4C270.906 30.1067 269.799 29.7867 268.679 29.44C267.559 29.0667 266.599 28.4933 265.799 27.72C265.026 26.9467 264.639 25.9733 264.639 24.8C264.639 22.96 265.612 21.4133 267.559 20.16C269.506 18.9067 271.546 18.28 273.679 18.28C276.026 18.28 277.812 18.76 279.039 19.72C279.759 20.28 280.119 21.0267 280.119 21.96C280.119 22.8667 279.759 23.6133 279.039 24.2C278.346 24.76 277.492 25.04 276.479 25.04C276.266 25.04 275.999 25.0133 275.679 24.96C275.759 24.6133 275.799 24.3067 275.799 24.04C275.799 23.2667 275.506 22.68 274.919 22.28C274.332 21.88 273.532 21.68 272.519 21.68C271.532 21.68 270.626 21.88 269.799 22.28C269.479 22.7067 269.319 23.2533 269.319 23.92C269.319 24.5867 269.706 25.1333 270.479 25.56C271.252 25.96 272.186 26.32 273.279 26.64C274.399 26.9333 275.519 27.28 276.639 27.68C277.759 28.0533 278.706 28.6533 279.479 29.48C280.252 30.28 280.639 31.2933 280.639 32.52C280.639 34.52 279.639 36.1867 277.639 37.52C275.666 38.8267 273.626 39.48 271.519 39.48C269.412 39.48 267.666 39.1067 266.279 38.36C264.919 37.5867 264.239 36.4267 264.239 34.88C264.239 33.92 264.586 33.1467 265.279 32.56C265.999 31.9467 266.866 31.64 267.879 31.64C268.092 31.64 268.359 31.6667 268.679 31.72Z" fill="#E2E8F0"/>
</svg>
